<svg width="679pt" height="105pt"
 viewBox="0.00 0.00 678.87 105.00" xmlns="http://www.w3.org/2000/svg" xmlns:xlink="http://www.w3.org/1999/xlink">
<g id="graph0" class="graph" transform="scale(1 1) rotate(0) translate(4 101)">
<title>G</title>
<polygon fill="#ffffff" stroke="transparent" points="-4,4 -4,-101 674.8674,-101 674.8674,4 -4,4"/>
<!-- model -->
<g id="node1" class="node">
<title>model</title>
<polygon fill="none" stroke="#000000" points="72,-50 4,-50 0,-46 0,0 68,0 72,-4 72,-50"/>
<polyline fill="none" stroke="#000000" points="68,-46 0,-46 "/>
<polyline fill="none" stroke="#000000" points="68,-46 68,0 "/>
<polyline fill="none" stroke="#000000" points="68,-46 72,-50 "/>
<text text-anchor="middle" x="36" y="-21.3" font-family="Times,serif" font-size="14.00" fill="#000000">model</text>
</g>
<!-- predict -->
<g id="node2" class="node">
<title>predict</title>
<ellipse fill="none" stroke="#000000" cx="153.1961" cy="-25" rx="44.393" ry="18"/>
<text text-anchor="middle" x="153.1961" y="-21.3" font-family="Times,serif" font-size="14.00" fill="#000000">predict</text>
</g>
<!-- model&#45;&gt;predict -->
<g id="edge1" class="edge">
<title>model&#45;&gt;predict</title>
<path fill="none" stroke="#000000" d="M72.119,-25C80.5239,-25 89.656,-25 98.6596,-25"/>
<polygon fill="#000000" stroke="#000000" points="98.7248,-28.5001 108.7248,-25 98.7247,-21.5001 98.7248,-28.5001"/>
</g>
<!-- loss -->
<g id="node3" class="node">
<title>loss</title>
<ellipse fill="none" stroke="#000000" cx="262.9896" cy="-78" rx="28.6953" ry="18"/>
<text text-anchor="middle" x="262.9896" y="-74.3" font-family="Times,serif" font-size="14.00" fill="#000000">loss</text>
</g>
<!-- predict&#45;&gt;loss -->
<g id="edge2" class="edge">
<title>predict&#45;&gt;loss</title>
<path fill="none" stroke="#000000" d="M181.7564,-38.7868C196.8049,-46.0511 215.3137,-54.9857 230.8613,-62.4909"/>
<polygon fill="#000000" stroke="#000000" points="229.5745,-65.7561 240.1017,-66.9515 232.6176,-59.4522 229.5745,-65.7561"/>
</g>
<!-- gradient -->
<g id="node4" class="node">
<title>gradient</title>
<ellipse fill="none" stroke="#000000" cx="424.6326" cy="-77" rx="50.0912" ry="18"/>
<text text-anchor="middle" x="424.6326" y="-73.3" font-family="Times,serif" font-size="14.00" fill="#000000">gradient</text>
</g>
<!-- loss&#45;&gt;gradient -->
<g id="edge3" class="edge">
<title>loss&#45;&gt;gradient</title>
<path fill="none" stroke="#000000" d="M291.8882,-77.8212C312.001,-77.6968 339.5533,-77.5263 364.345,-77.373"/>
<polygon fill="#000000" stroke="#000000" points="364.4303,-80.8726 374.4084,-77.3107 364.3869,-73.8727 364.4303,-80.8726"/>
</g>
<!-- step -->
<g id="node5" class="node">
<title>step</title>
<ellipse fill="none" stroke="#000000" cx="542.2255" cy="-41" rx="30.5947" ry="18"/>
<text text-anchor="middle" x="542.2255" y="-37.3" font-family="Times,serif" font-size="14.00" fill="#000000">step</text>
</g>
<!-- gradient&#45;&gt;step -->
<g id="edge4" class="edge">
<title>gradient&#45;&gt;step</title>
<path fill="none" stroke="#000000" d="M462.8117,-65.3118C476.3857,-61.1563 491.6383,-56.4868 505.121,-52.3592"/>
<polygon fill="#000000" stroke="#000000" points="506.4918,-55.6 515.0292,-49.3259 504.4427,-48.9066 506.4918,-55.6"/>
</g>
<!-- step&#45;&gt;predict -->
<g id="edge7" class="edge">
<title>step&#45;&gt;predict</title>
<path fill="none" stroke="#000000" d="M511.641,-39.7421C445.9565,-37.0406 290.6518,-30.6533 207.6803,-27.2408"/>
<polygon fill="#000000" stroke="#000000" points="207.5794,-23.7338 197.4439,-26.8198 207.2916,-30.7279 207.5794,-23.7338"/>
<text text-anchor="middle" x="333.0871" y="-37.8" font-family="Times,serif" font-size="14.00" fill="#000000">repeat</text>
</g>
<!-- stop -->
<g id="node6" class="node">
<title>stop</title>
<ellipse fill="none" stroke="#000000" cx="640.3201" cy="-41" rx="30.5947" ry="18"/>
<text text-anchor="middle" x="640.3201" y="-37.3" font-family="Times,serif" font-size="14.00" fill="#000000">stop</text>
</g>
<!-- step&#45;&gt;stop -->
<g id="edge5" class="edge">
<title>step&#45;&gt;stop</title>
<path fill="none" stroke="#000000" d="M572.9941,-41C581.3941,-41 590.6288,-41 599.4946,-41"/>
<polygon fill="#000000" stroke="#000000" points="599.6607,-44.5001 609.6607,-41 599.6606,-37.5001 599.6607,-44.5001"/>
</g>
<!-- label -->
<g id="node7" class="node">
<title>label</title>
<ellipse fill="none" stroke="#000000" cx="153.1961" cy="-79" rx="33.2948" ry="18"/>
<text text-anchor="middle" x="153.1961" y="-75.3" font-family="Times,serif" font-size="14.00" fill="#000000">label</text>
</g>
<!-- label&#45;&gt;loss -->
<g id="edge6" class="edge">
<title>label&#45;&gt;loss</title>
<path fill="none" stroke="#000000" d="M186.4357,-78.6973C198.3685,-78.5886 211.9271,-78.4651 224.2837,-78.3525"/>
<polygon fill="#000000" stroke="#000000" points="224.3509,-81.8522 234.3185,-78.2611 224.287,-74.8525 224.3509,-81.8522"/>
</g>
</g>
</svg>
